<svg width="125" height="108" viewBox="0 0 125 108" fill="none" xmlns="http://www.w3.org/2000/svg">
<g clip-path="url(#clip0_515_84)">
<path fill-rule="evenodd" clip-rule="evenodd" d="M7.8125 54C7.8125 27.9045 32.3047 6.75 62.5 6.75C92.6953 6.75 117.188 27.9045 117.188 54C117.188 80.0955 92.6953 101.25 62.5 101.25C32.3047 101.25 7.8125 80.0955 7.8125 54ZM125 54C125 24.1751 97.0312 0 62.5 0C27.9688 0 0 24.1751 0 54C0 83.8249 27.9688 108 62.5 108C97.0312 108 125 83.8249 125 54ZM65.9375 76.0556L88.047 56.9666C89.5705 55.647 89.5705 53.5106 88.047 52.1944C86.4845 50.8747 84.0234 50.8747 82.5 52.1944L66.4062 66.1027V30.375C66.4062 28.5086 64.6484 27 62.5 27C60.3516 27 58.5938 28.5086 58.5938 30.375V66.1027L42.5 52.1944C40.9766 50.8747 38.4764 50.8747 36.953 52.1944C35.4295 53.5106 35.4295 55.647 36.953 56.9666L59.0625 76.0556C60 76.8656 61.2891 77.1188 62.5 76.9332C63.7109 77.1188 65 76.8656 65.9375 76.0556Z" fill="black"/>
</g>
<defs>
<clipPath id="clip0_515_84">
<rect width="108" height="125" fill="white" transform="matrix(0 1 -1 0 125 0)"/>
</clipPath>
</defs>
</svg>
