<svg width="482" height="482" viewBox="0 0 482 482" fill="none" xmlns="http://www.w3.org/2000/svg">
<mask id="mask0_486_67" style="mask-type:alpha" maskUnits="userSpaceOnUse" x="0" y="0" width="482" height="482">
<circle cx="241" cy="241" r="241" fill="#D9D9D9"/>
</mask>
<g mask="url(#mask0_486_67)">
<path id="path1" class="animated-path" d="M47.3401 87.619C106.05 75.6837 136.253 84.3176 185.054 129.863C164.271 183.991 170.506 214.149 221.635 267.778C190.04 251.594 171.219 240.915 133.412 215.594C69.6277 197.578 38.6077 202.225 -4.30273 249.141C-1.32953 184.268 7.10606 148.597 47.3401 87.619Z" fill="#D5F4EF"/>
            <path id="path2" class="animated-path" d="M466.939 362.01C456 391.085 446.235 402.872 426.599 421.14C420.487 308.88 409.951 204.635 292.498 190.91C267.136 193.303 256.091 199.364 252.159 233.685C263.276 272.206 275.674 279.818 307.762 270.17C264.453 292.327 238.698 298.46 203.082 256.331C193.039 178.509 205.131 135.566 292.498 121.716C409.681 135.965 450.919 183.608 466.939 362.01Z" fill="#229F99"/>
            <path id="path3" class="animated-path" d="M245.111 405.435C169.065 400.439 128.315 402.272 58.0977 411.597C97.1213 452.424 125.297 473.721 245.111 494.171C328.288 484.423 368.081 466.873 425.676 411.597C428.83 289.358 399.156 232.479 333.526 198.398C368.126 250.307 376.699 272.578 354.74 321.628C319.613 381.497 293.513 392.439 245.111 405.435Z" fill="#0D5D78"/>
            <path id="path4" class="animated-path" d="M84.467 202.515C39.5262 206.015 19.2946 213.644 -3.55816 242.351C-5.1863 266.116 -4.31136 278.633 0.735746 299.616C31.6649 286.537 49.9564 283.782 84.467 288.413C111.801 293.336 127.99 301.066 157.463 318.289C194.459 340.002 215.865 345.764 255.15 345.676C279.971 343.508 292.579 338.66 313.118 324.513C336.819 302.442 347.195 287.344 346.395 242.351C344.16 224.134 339.268 215.6 325.999 202.515C332.986 217.003 334.228 225.358 331.367 239.863C313.041 271.921 297.08 279.593 258.37 275.964C219.076 266.272 196.553 256.622 154.243 221.188C131.767 205.881 117.364 200.307 84.467 202.515Z" fill="#61DECC"/>
            <path id="path5" class="animated-path" d="M88.2252 289.689C54.4006 283.022 35.0475 285.689 0.00195312 299.427C6.00475 330.581 12.3891 347.74 32.2787 377.324C53.3081 375.473 65.57 376.383 88.2252 380.976C121.022 390.692 138.407 397.445 167.841 411.405C191.789 415.38 205.219 415.342 229.167 411.405C289.477 401.994 317.402 389.062 349.667 343.243C364.827 312.652 368.753 293.684 367.957 256.824C350.648 206.561 335.283 190.817 296.948 187.445C332.416 202.513 344.678 216.643 346.439 256.824C342.881 278.874 337.884 290.225 323.846 309.162C297.42 336.031 276.046 342.665 229.167 343.243C207.398 340.042 193.7 335.238 167.841 323.769C138.722 305.594 121.874 296.707 88.2252 289.689Z" fill="#1695B0"/>
            <path id="path6" class="animated-path" d="M210.623 99.1145C164.914 149.451 138.44 173.952 207.574 260.035C192.473 201.945 198.669 180.207 232.801 144.142C283.486 118.131 311.898 117.661 362.583 144.142C450.771 203.59 456.172 255.775 462.123 360.481C478.341 321.352 493.694 303.815 486.958 213.749C463.035 156.756 441.167 128.086 373.399 88.2114C314.749 64.3683 272.688 50.246 210.623 99.1145Z" fill="#7AE9D9" stroke="#7AE9D9"/>
            <ellipse id="ellipse1" class="animated-path" cx="292.645" cy="232.481" rx="43.0357" ry="45.0354" fill="#144E69"/>
            <path id="path7" class="animated-path" d="M307.706 73.7365C243.397 71.6501 216.192 85.2375 181.826 133.378C148.912 104.246 123.96 92.0384 47.3398 90.7769C111.018 13.3252 161.717 -12.6529 307.706 5.5749C428.243 51.9589 455.616 101.621 483.076 202.757C430.126 127.049 395.706 92.3222 307.706 73.7365Z" fill="#FEFFFD"/>
            <path id="path8" class="animated-path" d="M60.2506 411.579C111.559 415.578 131.95 413.419 172.143 411.579C117.886 382.877 87.3058 373.179 32.2773 375.131C39.3947 391.559 43.9277 400.469 60.2506 411.579Z" fill="#137290"/>
</g>
</svg>
