<svg width="1821" height="229" viewBox="0 0 1821 229" fill="none" xmlns="http://www.w3.org/2000/svg">
<path d="M2 2C121.082 138.792 299.882 147.144 457.223 139.29C500.314 137.14 544.157 132.446 585.42 116.707C600.169 111.081 615.892 102.551 626.437 88.761C631.345 82.3436 639.486 66.8895 628.523 62.2778C605.402 52.5515 571.163 69.6997 566.232 98.5094C562.675 119.29 565.851 136.184 582.917 146.602C645.906 185.052 728.699 177.432 796.764 175.522C910.616 172.327 1024.31 162.676 1138.25 163.824C1256.13 165.011 1373.58 179.008 1490.72 193.394C1551.81 200.896 1612.69 210.067 1672.45 227.026C1697.75 234.206 1723.54 242.179 1746.84 256.109C1771.56 270.89 1799.23 288.903 1819 312" stroke="#3CB048" stroke-width="3" stroke-linecap="round"/>
</svg>
