<svg width="30" height="30" viewBox="0 0 30 30" fill="none" xmlns="http://www.w3.org/2000/svg">
<path d="M18.9167 29.8089L10 26.6448L2.25 29.6824C1.69444 29.9074 1.18056 29.8438 0.708333 29.4917C0.236111 29.1407 0 28.6698 0 28.0792V4.45352C0 4.08789 0.104444 3.76444 0.313333 3.48319C0.521111 3.20193 0.805556 2.99098 1.16667 2.85035L8.91667 0.192467C9.27778 0.0799633 9.63889 0.0163992 10 0.00177378C10.3611 -0.0117266 10.7222 0.0518375 11.0833 0.192467L20 3.35662L27.75 0.319033C28.3056 0.0940263 28.8194 0.157028 29.2917 0.508038C29.7639 0.860173 30 1.33156 30 1.9222V25.5479C30 25.9135 29.8956 26.237 29.6867 26.5182C29.4789 26.7995 29.1944 27.0104 28.8333 27.151L21.0833 29.8089C20.7222 29.9214 20.3611 29.9844 20 29.9979C19.6389 30.0126 19.2778 29.9496 18.9167 29.8089ZM18.3333 26.0541V6.30983L11.6667 3.94726V23.6916L18.3333 26.0541ZM21.6667 26.0541L26.6667 24.3666V4.36915L21.6667 6.30983V26.0541ZM3.33333 25.6322L8.33333 23.6916V3.94726L3.33333 5.63481V25.6322Z" fill="#549EF2"/>
</svg>
