<svg width="100" height="100" viewBox="0 0 100 100" fill="none" xmlns="http://www.w3.org/2000/svg">
<path d="M50 5C41.0999 5 32.3996 7.6392 24.9994 12.5839C17.5991 17.5285 11.8314 24.5566 8.42544 32.7792C5.0195 41.0019 4.12835 50.0499 5.86468 58.7791C7.60102 67.5082 11.8869 75.5264 18.1802 81.8198C24.4736 88.1132 32.4918 92.399 41.221 94.1353C49.9501 95.8717 58.9981 94.9805 67.2208 91.5746C75.4435 88.1686 82.4715 82.4009 87.4162 75.0007C92.3608 67.6005 95 58.9002 95 50C94.9999 38.0653 90.2588 26.6195 81.8197 18.1804C73.3806 9.74126 61.9347 5.00015 50 5ZM50 93C40.0516 93.0001 30.411 89.5507 22.7208 83.2396C15.0305 76.9284 9.76651 68.1461 7.82561 58.3889C5.88472 48.6317 7.38706 38.5033 12.0766 29.7296C16.7662 20.9559 24.3529 14.0797 33.544 10.2726C42.735 6.46546 52.9619 5.96301 62.4819 8.85083C72.0019 11.7387 80.226 17.8381 85.7531 26.1098C91.2801 34.3816 93.7681 44.3139 92.793 54.2143C91.8179 64.1148 87.4401 73.3709 80.4055 80.4055C76.4172 84.4045 71.6778 87.5759 66.4598 89.7374C61.2417 91.8988 55.648 93.0076 50 93Z" fill="black"/>
<path d="M72.933 41.7082C72.6195 38.7909 71.2472 36.0898 69.0758 34.1164C66.9045 32.143 64.0849 31.0342 61.151 31.0001L61.1283 31C58.7698 31.0437 56.4792 31.7972 54.5553 33.1622C53.0278 34.2378 51.684 35.553 50.5758 37.0571C50.3588 37.3472 50.1691 37.6186 50 37.8701C49.8309 37.6185 49.6412 37.3471 49.4241 37.0571C48.316 35.553 46.9722 34.2378 45.4447 33.1622C43.5208 31.7972 41.2302 31.0437 38.8717 31L38.849 31.0001C35.9151 31.0342 33.0955 32.143 30.9242 34.1164C28.7529 36.0898 27.3805 38.7909 27.067 41.7082L27.0637 41.7478C27.0317 42.2548 27.0009 43.4864 27 43.7046C27.0073 46.951 28.3924 50.2765 30.4011 53.4951C33.6175 58.2897 37.4406 62.6481 41.7754 66.4617C45.6403 69.9879 48.882 72.4171 49.4058 72.8043C49.578 72.9311 49.7862 72.9995 50 72.9995C50.2138 72.9995 50.422 72.9311 50.5942 72.8043C54.7148 69.6943 58.6004 66.2848 62.2196 62.6034C64.9882 59.8311 67.4613 56.7786 69.5989 53.4951C71.6076 50.2764 72.9927 46.951 73 43.7046C72.9991 43.4864 72.9684 42.2548 72.9364 41.7478L72.933 41.7082ZM56.8766 64.9843C53.8373 67.7578 51.1832 69.8447 50.0002 70.7479C46.1886 67.8208 42.5843 64.6332 39.2132 61.208C36.5441 58.5372 34.1591 55.5969 32.0965 52.4341C30.1899 49.3959 28.9928 46.3583 29 43.7046C28.9991 43.5918 29.0316 42.3218 29.0579 41.9056C29.3226 39.48 30.466 37.2352 32.2722 35.5947C34.0784 33.9542 36.4225 33.0314 38.8623 33.0006C40.8198 33.042 42.7193 33.6729 44.3125 34.8109C45.6599 35.7633 46.8452 36.9263 47.8229 38.2554C48.1713 38.7199 48.4959 39.2019 48.7954 39.6994C48.9032 39.8792 48.9832 40.0217 49.0352 40.1169L49.0919 40.2229L49.1043 40.2469L49.106 40.2504C49.1892 40.4162 49.3168 40.5557 49.4747 40.6531C49.6326 40.7506 49.8145 40.8022 50 40.8022C50.1856 40.8022 50.3675 40.7506 50.5253 40.6531C50.6832 40.5557 50.8109 40.4162 50.894 40.2504L50.8957 40.2469C51.2703 39.5507 51.6988 38.8848 52.1771 38.2553C53.1549 36.9263 54.3402 35.7633 55.6876 34.8109C57.2808 33.6729 59.1803 33.0419 61.1378 33.0005C63.5776 33.0314 65.9217 33.9541 67.7279 35.5946C69.5341 37.2351 70.6774 39.4799 70.9422 41.9055C70.9685 42.3217 71.001 43.5918 71.0001 43.7046C71.0073 46.3583 69.8102 49.3959 67.9036 52.4341C64.7824 57.0739 61.0762 61.292 56.8766 64.9843Z" fill="black"/>
</svg>
