<svg width="40" height="40" viewBox="0 0 40 40" fill="none" xmlns="http://www.w3.org/2000/svg">
<path d="M17.065 24.6028C17.8767 25.3967 18.945 25.7912 20.01 25.7912C21.0633 25.7912 22.1133 25.4034 22.9033 24.6311L28.2483 19.8893C30.4517 17.689 31.6667 14.763 31.6667 11.6506C31.6667 8.53826 30.4517 5.61395 28.2483 3.41198C26.0467 1.21167 23.1167 0 20 0C16.8833 0 13.9533 1.21167 11.75 3.41198C7.20167 7.95406 7.20167 15.3456 11.785 19.9226L17.065 24.6028ZM12.9283 4.58869C14.8183 2.70295 17.33 1.66438 20 1.66438C22.67 1.66438 25.1817 2.70295 27.07 4.58869C28.96 6.47443 30 8.98265 30 11.6506C30 14.3186 28.96 16.8252 27.1067 18.6777L21.7683 23.4128C20.795 24.3665 19.2083 24.3615 18.2017 23.3845L12.9283 18.7109C9.03 14.818 9.03 8.48167 12.9283 4.58869ZM20 16.6105C22.7467 16.6105 24.9833 14.3786 24.9833 11.634C24.9833 8.88944 22.7467 6.65751 20 6.65751C17.2533 6.65751 15.0167 8.88944 15.0167 11.634C15.0167 14.3786 17.2533 16.6105 20 16.6105ZM20 8.32189C21.83 8.32189 23.3167 9.80818 23.3167 11.634C23.3167 13.4598 21.8283 14.9461 20 14.9461C18.1717 14.9461 16.6833 13.4598 16.6833 11.634C16.6833 9.80818 18.1717 8.32189 20 8.32189ZM40 28.3211C40 28.614 39.8467 28.8853 39.595 29.0351L22.4117 39.3309C21.6683 39.777 20.835 40 20 40C19.165 40 18.3317 39.7753 17.5883 39.3309L0.405 29.0334C0.153333 28.8836 0 28.6123 0 28.3194C0 28.0265 0.153333 27.7552 0.405 27.6054L8.73833 22.6122C9.12833 22.3742 9.645 22.5041 9.88167 22.8985C10.12 23.2913 9.99 23.8039 9.595 24.0403L2.45333 28.3194L18.445 37.9012C19.405 38.4771 20.5967 38.4771 21.5567 37.9012L37.5483 28.3194L30.3633 24.0136C29.9683 23.7773 29.84 23.2663 30.0767 22.8719C30.315 22.4774 30.83 22.3493 31.22 22.5856L39.595 27.6054C39.8467 27.7568 40 28.0265 40 28.3194V28.3211Z" fill="black"/>
</svg>
