<svg width="16" height="16" viewBox="0 0 16 16" fill="none" xmlns="http://www.w3.org/2000/svg">
<mask id="mask0_553_94" style="mask-type:alpha" maskUnits="userSpaceOnUse" x="0" y="0" width="16" height="16">
<circle cx="8" cy="8" r="8" fill="#D9D9D9"/>
</mask>
<g mask="url(#mask0_553_94)">
<path d="M1.57171 2.90811C3.52059 2.51192 4.52318 2.79852 6.14314 4.31041C5.45322 6.10718 5.66022 7.10828 7.35742 8.88848C6.30864 8.35125 5.68387 7.99678 4.42885 7.15624C2.31155 6.5582 1.28184 6.71245 -0.142578 8.26982C-0.0438825 6.11638 0.236137 4.93227 1.57171 2.90811Z" fill="#D5F4EF"/>
<path d="M6.5018 3.00078C4.98449 4.67169 4.70509 6.14249 7 9C6.49874 7.07172 6.59549 5.9823 7.72851 4.78513C9.41098 3.92168 10.3541 3.90609 12.0366 4.78513C14.964 6.7585 15.1433 8.49079 15.3409 11.9665C15.8792 10.6676 16.3888 10.0855 16.1652 7.09573C15.3711 5.20383 14.6452 4.25214 12.3956 2.9285C10.4488 2.13703 8.56205 1.37858 6.5018 3.00078Z" fill="#7AE9D9"/>
<path d="M15.4997 12.0166C15.1366 12.9818 14.8125 13.373 14.1607 13.9794C13.9578 10.2529 13.608 6.79255 9.70917 6.33696C8.86726 6.41637 8.50063 6.61758 8.37011 7.75687C8.73915 9.03558 9.15068 9.28825 10.2158 8.96797C8.7782 9.70348 7.92327 9.90705 6.74099 8.50859C6.40762 5.92529 6.80901 4.49978 9.70917 4.04004C13.599 4.51305 14.9679 6.09454 15.4997 12.0166Z" fill="#229F99"/>
<path d="M8.13761 13.4585C5.61323 13.2927 4.26054 13.3535 1.92969 13.6631C3.22508 15.0183 4.16037 15.7253 8.13761 16.4041C10.8986 16.0805 12.2196 15.498 14.1315 13.6631C14.2362 9.60535 13.2511 7.71725 11.0725 6.58594C12.2211 8.30905 12.5057 9.04834 11.7767 10.6766C10.6107 12.6639 9.7443 13.0271 8.13761 13.4585Z" fill="#0D5D78"/>
<path d="M2.80414 6.72245C1.31233 6.83864 0.640735 7.09185 -0.117862 8.04479C-0.171908 8.83368 -0.142864 9.24919 0.0246744 9.94572C1.05137 9.51155 1.65856 9.42009 2.80414 9.57382C3.71148 9.73725 4.24889 9.99386 5.22725 10.5656C6.45533 11.2863 7.16588 11.4776 8.46996 11.4747C9.2939 11.4027 9.71243 11.2418 10.3942 10.7722C11.181 10.0395 11.5254 9.53835 11.4989 8.04479C11.4246 7.44008 11.2623 7.1568 10.8218 6.72245C11.0537 7.20337 11.095 7.48072 11 7.96222C10.3917 9.02636 9.86182 9.28105 8.57686 9.16059C7.27247 8.83886 6.52482 8.51854 5.12035 7.34229C4.37425 6.83417 3.89616 6.64915 2.80414 6.72245Z" fill="#61DECC"/>
<path d="M2.92857 9.61665C1.80576 9.39533 1.16334 9.48386 0 9.93989C0.199263 10.974 0.411191 11.5437 1.07143 12.5257C1.7695 12.4642 2.17653 12.4944 2.92857 12.6469C4.01726 12.9694 4.59437 13.1936 5.57143 13.657C6.36639 13.789 6.81218 13.7877 7.60714 13.657C9.60913 13.3446 10.5361 12.9153 11.6071 11.3944C12.1104 10.3789 12.2407 9.74926 12.2143 8.52569C11.6397 6.8572 11.1297 6.33459 9.85714 6.22266C11.0345 6.72284 11.4415 7.19188 11.5 8.52569C11.3819 9.25765 11.216 9.63442 10.75 10.2631C9.87281 11.155 9.16328 11.3752 7.60714 11.3944C6.88452 11.2881 6.42982 11.1286 5.57143 10.7479C4.6048 10.1446 4.04554 9.8496 2.92857 9.61665Z" fill="#1695B0"/>
<ellipse cx="9.71373" cy="7.71761" rx="1.42857" ry="1.49495" fill="#144E69"/>
<path d="M10.2151 2.44769C8.08039 2.37843 6.64077 2.90198 5.5 4.5C4.40739 3.53295 4.11568 3.05522 1.57227 3.01334C3.68606 0.442329 5.369 -0.420013 10.2151 0.185059C14.2164 1.72478 15.125 3.37331 16.0366 6.73051C14.2789 4.21741 13.1363 3.06464 10.2151 2.44769Z" fill="#FEFFFD"/>
<path d="M2.00084 13.6622C3.70402 13.795 4.38091 13.7233 5.71512 13.6622C3.91405 12.7095 2.89894 12.3875 1.07227 12.4523C1.30853 12.9977 1.459 13.2935 2.00084 13.6622Z" fill="#137290"/>
</g>
</svg>
