<svg width="40" height="40" viewBox="0 0 40 40" fill="none" xmlns="http://www.w3.org/2000/svg">
<path d="M27.5 10H12.5C10.2017 10 8.33333 11.87 8.33333 14.1667L8.345 28.3433H31.6783L31.6667 14.165C31.6667 11.8683 29.7967 10 27.5 10ZM27.5 11.6667C28.1017 11.6667 28.655 11.88 29.0867 12.235L22.25 19.0717C21.055 20.2667 18.9733 20.2667 17.7783 19.0717L10.93 12.2233C11.36 11.875 11.9067 11.6667 12.5 11.6667H27.5ZM10.0117 26.6783L10 14.1667C10 14.005 10.0167 13.8483 10.045 13.695L16.6 20.25C17.5133 21.1617 18.725 21.665 20.015 21.665C21.305 21.665 22.5167 21.1633 23.4283 20.25L29.96 13.7183C29.9867 13.8633 30.0017 14.0133 30.0017 14.165L30.0133 26.6767L10.0117 26.6783ZM20 0C8.97167 0 0 8.97167 0 20C0 31.0283 8.97167 40 20 40C31.0283 40 40 31.0283 40 20C40 8.97167 31.0283 0 20 0ZM20 38.3333C9.89167 38.3333 1.66667 30.1083 1.66667 20C1.66667 9.89167 9.89167 1.66667 20 1.66667C30.1083 1.66667 38.3333 9.89167 38.3333 20C38.3333 30.1083 30.1083 38.3333 20 38.3333Z" fill="black"/>
</svg>
