<svg width="30" height="30" viewBox="0 0 30 30" fill="none" xmlns="http://www.w3.org/2000/svg">
<path d="M27 7.5H19.5V3C19.5 1.35 18.15 0 16.5 0H13.5C11.85 0 10.5 1.35 10.5 3V7.5H3C1.35 7.5 0 8.85 0 10.5V27C0 28.65 1.35 30 3 30H27C28.65 30 30 28.65 30 27V10.5C30 8.85 28.65 7.5 27 7.5ZM10.5 15C11.745 15 12.75 16.005 12.75 17.25C12.75 18.495 11.745 19.5 10.5 19.5C9.255 19.5 8.25 18.495 8.25 17.25C8.25 16.005 9.255 15 10.5 15ZM15 24H6V23.355C6 22.455 6.54 21.63 7.38 21.27C8.34 20.85 9.39 20.625 10.5 20.625C11.61 20.625 12.66 20.85 13.62 21.27C14.445 21.63 15 22.44 15 23.355V24ZM16.5 10.5H13.5V3H16.5V10.5ZM22.875 21.75H19.125C18.51 21.75 18 21.24 18 20.625C18 20.01 18.51 19.5 19.125 19.5H22.875C23.49 19.5 24 20.01 24 20.625C24 21.24 23.49 21.75 22.875 21.75ZM22.875 17.25H19.125C18.51 17.25 18 16.74 18 16.125C18 15.51 18.51 15 19.125 15H22.875C23.49 15 24 15.51 24 16.125C24 16.74 23.49 17.25 22.875 17.25Z" fill="#EA5353"/>
</svg>
