<svg width="10" height="10" viewBox="0 0 50 40" fill="none" xmlns="http://www.w3.org/2000/svg">
<path d="M25 40C11.2146 40 0 31.0283 0 20C0 8.97167 11.2146 0 25 0C38.7854 0 50 8.97167 50 20C50 31.0283 38.7854 40 25 40ZM25 1.66667C12.3646 1.66667 2.08333 9.89167 2.08333 20C2.08333 30.1083 12.3646 38.3333 25 38.3333C37.6354 38.3333 47.9167 30.1083 47.9167 20C47.9167 9.89167 37.6354 1.66667 25 1.66667ZM31.0167 31.6667C21.9687 31.6667 10.4167 22.4267 10.4167 15.1867C10.4167 13.6117 11.1625 12.1467 12.5167 11.065L16.3646 7.98833L23.9583 14.0633L19.7104 17.4633C21.4875 20.6933 24.2625 22.9183 28.1667 24.2417L32.4229 20.8367L40.0187 26.9117L36.1729 29.9883C34.8208 31.0717 32.9917 31.6683 31.0187 31.6683L31.0167 31.6667ZM16.3625 10.345L13.9875 12.2433C13.0271 13.0117 12.4979 14.0567 12.4979 15.1867C12.4979 21.555 23.0521 30 31.0146 30C32.4292 30 33.7354 29.5767 34.6958 28.8083L37.0687 26.91L32.4208 23.1917L28.6729 26.19L28.0417 25.9983C23.1 24.4883 19.5583 21.6567 17.5104 17.58L17.2542 17.0683L21.0104 14.0633L16.3625 10.345Z" fill="black"/>
</svg>
