<svg width="1235" height="725" viewBox="0 0 1235 725" fill="none" xmlns="http://www.w3.org/2000/svg">
<g clip-path="url(#clip0_703_85)">
<mask id="mask0_703_85" style="mask-type:alpha" maskUnits="userSpaceOnUse" x="377" y="47" width="482" height="482">
<circle cx="618" cy="288" r="241" fill="#D9D9D9"/>
</mask>
<g mask="url(#mask0_703_85)">
<path d="M424.34 134.619C483.05 122.684 513.253 131.318 562.054 176.863C541.271 230.991 547.506 261.149 598.635 314.778C567.04 298.594 548.219 287.915 510.412 262.594C446.628 244.578 415.608 249.225 372.697 296.141C375.67 231.268 384.106 195.597 424.34 134.619Z" fill="#D5F4EF"/>
<path d="M843.939 409.01C833 438.085 823.235 449.872 803.599 468.14C797.487 355.88 786.951 251.635 669.498 237.91C644.136 240.303 633.091 246.364 629.159 280.685C640.276 319.206 652.674 326.818 684.762 317.17C641.453 339.327 615.698 345.46 580.082 303.331C570.039 225.509 582.131 182.566 669.498 168.716C786.681 182.965 827.919 230.608 843.939 409.01Z" fill="#229F99"/>
<path d="M622.111 452.435C546.065 447.439 505.315 449.272 435.098 458.597C474.121 499.424 502.297 520.721 622.111 541.171C705.288 531.423 745.081 513.873 802.676 458.597C805.83 336.358 776.156 279.479 710.526 245.398C745.126 297.307 753.699 319.578 731.74 368.628C696.613 428.497 670.513 439.439 622.111 452.435Z" fill="#0D5D78"/>
<path d="M461.467 249.514C416.526 253.014 396.295 260.643 373.442 289.35C371.814 313.115 372.689 325.632 377.736 346.615C408.665 333.536 426.956 330.781 461.467 335.412C488.801 340.335 504.99 348.065 534.463 365.288C571.459 387.001 592.865 392.763 632.15 392.675C656.971 390.507 669.579 385.659 690.118 371.513C713.819 349.441 724.195 334.343 723.395 289.35C721.16 271.133 716.268 262.599 702.999 249.514C709.986 264.002 711.228 272.357 708.367 286.862C690.041 318.92 674.08 326.592 635.37 322.963C596.076 313.271 573.553 303.622 531.243 268.187C508.767 252.88 494.364 247.306 461.467 249.514Z" fill="#61DECC"/>
<path d="M465.225 336.689C431.401 330.021 412.047 332.688 377.002 346.426C383.005 377.58 389.389 394.739 409.279 424.323C430.308 422.472 442.57 423.382 465.225 427.975C498.022 437.691 515.407 444.444 544.841 458.404C568.789 462.379 582.219 462.341 606.167 458.404C666.477 448.993 694.402 436.061 726.667 390.242C741.827 359.651 745.753 340.683 744.957 303.823C727.648 253.56 712.283 237.816 673.948 234.444C709.416 249.512 721.678 263.642 723.439 303.823C719.881 325.873 714.884 337.224 700.846 356.162C674.42 383.03 653.046 389.664 606.167 390.242C584.398 387.041 570.7 382.237 544.841 370.768C515.722 352.593 498.874 343.706 465.225 336.689Z" fill="#1695B0"/>
<path d="M587.623 146.115C541.914 196.452 515.44 220.953 584.574 307.036C569.473 248.946 575.669 227.208 609.801 191.143C660.486 165.132 688.898 164.662 739.583 191.143C827.771 250.591 833.172 302.776 839.123 407.482C855.341 368.353 870.694 350.816 863.958 260.75C840.035 203.757 818.167 175.087 750.399 135.212C691.749 111.369 649.688 97.2469 587.623 146.115Z" fill="#7AE9D9" stroke="#7AE9D9"/>
<ellipse cx="669.645" cy="279.48" rx="43.0357" ry="45.0354" fill="#144E69"/>
<path d="M684.706 120.737C620.397 118.65 593.192 132.238 558.826 180.378C525.912 151.246 500.96 139.038 424.34 137.777C488.018 60.3252 538.717 34.3471 684.706 52.5749C805.243 98.9589 832.616 148.621 860.076 249.757C807.126 174.049 772.706 139.322 684.706 120.737Z" fill="#FEFFFD"/>
<path d="M437.251 458.579C488.559 462.578 508.95 460.419 549.143 458.579C494.886 429.877 464.306 420.179 409.277 422.131C416.395 438.559 420.928 447.469 437.251 458.579Z" fill="#137290"/>
</g>
<path d="M769.231 618.85C765.944 611.937 761.184 606.61 754.951 602.87C748.718 599.017 741.464 597.09 733.191 597.09C724.918 597.09 717.438 599.017 710.751 602.87C704.178 606.61 698.964 612.05 695.111 619.19C691.371 626.217 689.501 634.377 689.501 643.67C689.501 652.963 691.371 661.123 695.111 668.15C698.964 675.177 704.178 680.617 710.751 684.47C717.438 688.21 724.918 690.08 733.191 690.08C744.751 690.08 754.271 686.623 761.751 679.71C769.231 672.797 773.594 663.447 774.841 651.66H727.581V639.08H791.331V650.98C790.424 660.727 787.364 669.68 782.151 677.84C776.938 685.887 770.081 692.29 761.581 697.05C753.081 701.697 743.618 704.02 733.191 704.02C722.198 704.02 712.168 701.47 703.101 696.37C694.034 691.157 686.838 683.96 681.511 674.78C676.298 665.6 673.691 655.23 673.691 643.67C673.691 632.11 676.298 621.74 681.511 612.56C686.838 603.267 694.034 596.07 703.101 590.97C712.168 585.757 722.198 583.15 733.191 583.15C745.771 583.15 756.878 586.267 766.511 592.5C776.258 598.733 783.341 607.517 787.761 618.85H769.231ZM894.405 609.84V703H878.935V689.23C875.989 693.99 871.852 697.73 866.525 700.45C861.312 703.057 855.532 704.36 849.185 704.36C841.932 704.36 835.415 702.887 829.635 699.94C823.855 696.88 819.265 692.347 815.865 686.34C812.579 680.333 810.935 673.023 810.935 664.41V609.84H826.235V662.37C826.235 671.55 828.559 678.633 833.205 683.62C837.852 688.493 844.199 690.93 852.245 690.93C860.519 690.93 867.035 688.38 871.795 683.28C876.555 678.18 878.935 670.757 878.935 661.01V609.84H894.405ZM914.746 656.08C914.746 646.56 916.672 638.23 920.526 631.09C924.379 623.837 929.649 618.227 936.336 614.26C943.136 610.293 950.672 608.31 958.946 608.31C967.106 608.31 974.189 610.067 980.196 613.58C986.202 617.093 990.679 621.513 993.626 626.84V609.84H1009.27V703H993.626V685.66C990.566 691.1 985.976 695.633 979.856 699.26C973.849 702.773 966.822 704.53 958.776 704.53C950.502 704.53 943.022 702.49 936.336 698.41C929.649 694.33 924.379 688.607 920.526 681.24C916.672 673.873 914.746 665.487 914.746 656.08ZM993.626 656.25C993.626 649.223 992.209 643.103 989.376 637.89C986.542 632.677 982.689 628.71 977.816 625.99C973.056 623.157 967.786 621.74 962.006 621.74C956.226 621.74 950.956 623.1 946.196 625.82C941.436 628.54 937.639 632.507 934.806 637.72C931.972 642.933 930.556 649.053 930.556 656.08C930.556 663.22 931.972 669.453 934.806 674.78C937.639 679.993 941.436 684.017 946.196 686.85C950.956 689.57 956.226 690.93 962.006 690.93C967.786 690.93 973.056 689.57 977.816 686.85C982.689 684.017 986.542 679.993 989.376 674.78C992.209 669.453 993.626 663.277 993.626 656.25ZM1050.88 624.97C1053.6 619.643 1057.45 615.507 1062.44 612.56C1067.54 609.613 1073.72 608.14 1080.97 608.14V624.12H1076.89C1059.55 624.12 1050.88 633.527 1050.88 652.34V703H1035.41V609.84H1050.88V624.97ZM1093.05 656.08C1093.05 646.56 1094.97 638.23 1098.83 631.09C1102.68 623.837 1107.95 618.227 1114.64 614.26C1121.44 610.293 1129.03 608.31 1137.42 608.31C1144.67 608.31 1151.41 610.01 1157.65 613.41C1163.88 616.697 1168.64 621.06 1171.93 626.5V577.2H1187.57V703H1171.93V685.49C1168.87 691.043 1164.33 695.633 1158.33 699.26C1152.32 702.773 1145.29 704.53 1137.25 704.53C1128.97 704.53 1121.44 702.49 1114.64 698.41C1107.95 694.33 1102.68 688.607 1098.83 681.24C1094.97 673.873 1093.05 665.487 1093.05 656.08ZM1171.93 656.25C1171.93 649.223 1170.51 643.103 1167.68 637.89C1164.84 632.677 1160.99 628.71 1156.12 625.99C1151.36 623.157 1146.09 621.74 1140.31 621.74C1134.53 621.74 1129.26 623.1 1124.5 625.82C1119.74 628.54 1115.94 632.507 1113.11 637.72C1110.27 642.933 1108.86 649.053 1108.86 656.08C1108.86 663.22 1110.27 669.453 1113.11 674.78C1115.94 679.993 1119.74 684.017 1124.5 686.85C1129.26 689.57 1134.53 690.93 1140.31 690.93C1146.09 690.93 1151.36 689.57 1156.12 686.85C1160.99 684.017 1164.84 679.993 1167.68 674.78C1170.51 669.453 1171.93 663.277 1171.93 656.25Z" fill="#2A5B5A"/>
<path d="M119.836 704.19C108.843 704.19 98.813 701.64 89.7464 696.54C80.6797 691.327 73.483 684.13 68.1564 674.95C62.943 665.657 60.3364 655.23 60.3364 643.67C60.3364 632.11 62.943 621.74 68.1564 612.56C73.483 603.267 80.6797 596.07 89.7464 590.97C98.813 585.757 108.843 583.15 119.836 583.15C130.943 583.15 141.03 585.757 150.096 590.97C159.163 596.07 166.303 603.21 171.516 612.39C176.73 621.57 179.336 631.997 179.336 643.67C179.336 655.343 176.73 665.77 171.516 674.95C166.303 684.13 159.163 691.327 150.096 696.54C141.03 701.64 130.943 704.19 119.836 704.19ZM119.836 690.76C128.11 690.76 135.533 688.833 142.106 684.98C148.793 681.127 154.006 675.63 157.746 668.49C161.6 661.35 163.526 653.077 163.526 643.67C163.526 634.15 161.6 625.877 157.746 618.85C154.006 611.71 148.85 606.213 142.276 602.36C135.703 598.507 128.223 596.58 119.836 596.58C111.45 596.58 103.97 598.507 97.3964 602.36C90.823 606.213 85.6097 611.71 81.7564 618.85C78.0164 625.877 76.1464 634.15 76.1464 643.67C76.1464 653.077 78.0164 661.35 81.7564 668.49C85.6097 675.63 90.823 681.127 97.3964 684.98C104.083 688.833 111.563 690.76 119.836 690.76ZM193.979 656.25C193.979 646.617 195.906 638.23 199.759 631.09C203.612 623.837 208.939 618.227 215.739 614.26C222.652 610.293 230.529 608.31 239.369 608.31C250.816 608.31 260.222 611.087 267.589 616.64C275.069 622.193 279.999 629.9 282.379 639.76H265.719C264.132 634.093 261.016 629.617 256.369 626.33C251.836 623.043 246.169 621.4 239.369 621.4C230.529 621.4 223.389 624.46 217.949 630.58C212.509 636.587 209.789 645.143 209.789 656.25C209.789 667.47 212.509 676.14 217.949 682.26C223.389 688.38 230.529 691.44 239.369 691.44C246.169 691.44 251.836 689.853 256.369 686.68C260.902 683.507 264.019 678.973 265.719 673.08H282.379C279.886 682.6 274.899 690.25 267.419 696.03C259.939 701.697 250.589 704.53 239.369 704.53C230.529 704.53 222.652 702.547 215.739 698.58C208.939 694.613 203.612 689.003 199.759 681.75C195.906 674.497 193.979 665.997 193.979 656.25ZM388.021 652.85C388.021 655.797 387.851 658.913 387.511 662.2H313.051C313.617 671.38 316.734 678.577 322.401 683.79C328.181 688.89 335.151 691.44 343.311 691.44C349.997 691.44 355.551 689.91 359.971 686.85C364.504 683.677 367.677 679.483 369.491 674.27H386.151C383.657 683.223 378.671 690.533 371.191 696.2C363.711 701.753 354.417 704.53 343.311 704.53C334.471 704.53 326.537 702.547 319.511 698.58C312.597 694.613 307.157 689.003 303.191 681.75C299.224 674.383 297.241 665.883 297.241 656.25C297.241 646.617 299.167 638.173 303.021 630.92C306.874 623.667 312.257 618.113 319.171 614.26C326.197 610.293 334.244 608.31 343.311 608.31C352.151 608.31 359.971 610.237 366.771 614.09C373.571 617.943 378.784 623.27 382.411 630.07C386.151 636.757 388.021 644.35 388.021 652.85ZM372.041 649.62C372.041 643.727 370.737 638.683 368.131 634.49C365.524 630.183 361.954 626.953 357.421 624.8C353.001 622.533 348.071 621.4 342.631 621.4C334.811 621.4 328.124 623.893 322.571 628.88C317.131 633.867 314.014 640.78 313.221 649.62H372.041ZM402.661 656.08C402.661 646.56 404.587 638.23 408.441 631.09C412.294 623.837 417.564 618.227 424.251 614.26C431.051 610.293 438.587 608.31 446.861 608.31C455.021 608.31 462.104 610.067 468.111 613.58C474.117 617.093 478.594 621.513 481.541 626.84V609.84H497.181V703H481.541V685.66C478.481 691.1 473.891 695.633 467.771 699.26C461.764 702.773 454.737 704.53 446.691 704.53C438.417 704.53 430.937 702.49 424.251 698.41C417.564 694.33 412.294 688.607 408.441 681.24C404.587 673.873 402.661 665.487 402.661 656.08ZM481.541 656.25C481.541 649.223 480.124 643.103 477.291 637.89C474.457 632.677 470.604 628.71 465.731 625.99C460.971 623.157 455.701 621.74 449.921 621.74C444.141 621.74 438.871 623.1 434.111 625.82C429.351 628.54 425.554 632.507 422.721 637.72C419.887 642.933 418.471 649.053 418.471 656.08C418.471 663.22 419.887 669.453 422.721 674.78C425.554 679.993 429.351 684.017 434.111 686.85C438.871 689.57 444.141 690.93 449.921 690.93C455.701 690.93 460.971 689.57 465.731 686.85C470.604 684.017 474.457 679.993 477.291 674.78C480.124 669.453 481.541 663.277 481.541 656.25ZM568.713 608.14C580.047 608.14 589.227 611.597 596.253 618.51C603.28 625.31 606.793 635.17 606.793 648.09V703H591.493V650.3C591.493 641.007 589.17 633.923 584.523 629.05C579.877 624.063 573.53 621.57 565.483 621.57C557.323 621.57 550.807 624.12 545.933 629.22C541.173 634.32 538.793 641.743 538.793 651.49V703H523.323V609.84H538.793V623.1C541.853 618.34 545.99 614.657 551.203 612.05C556.53 609.443 562.367 608.14 568.713 608.14Z" fill="#29BDB5"/>
</g>
<defs>
<clipPath id="clip0_703_85">
<rect width="1235" height="725" fill="white"/>
</clipPath>
</defs>
</svg>
